<?xml version="1.0" encoding="UTF-8"?>
<!DOCTYPE svg PUBLIC "-//W3C//DTD SVG 1.1//EN" "http://www.w3.org/Graphics/SVG/1.1/DTD/svg11.dtd">
<!-- Creator: CorelDRAW 2020 (64-Bit) -->
<svg xmlns="http://www.w3.org/2000/svg" xml:space="preserve" width="30px" height="30px" version="1.1" style="shape-rendering:geometricPrecision; text-rendering:geometricPrecision; image-rendering:optimizeQuality; fill-rule:evenodd; clip-rule:evenodd"
viewBox="0 0 30 30"
 xmlns:xlink="http://www.w3.org/1999/xlink"
 xmlns:xodm="http://www.corel.com/coreldraw/odm/2003">
 <defs>
  <style type="text/css">
   <![CDATA[
    .fil0 {fill:black;fill-rule:nonzero}
   ]]>
  </style>
 </defs>
 <g id="Слой_x0020_1">
  <metadata id="CorelCorpID_0Corel-Layer"/>
  <path class="fil0" d="M11.63 29.26c-0.52,0.53 -1.23,0.86 -2.02,0.86 -0.78,0 -1.5,-0.33 -2.01,-0.86 -0.5,-0.52 -0.81,-1.24 -0.81,-2.02 0,-0.78 0.31,-1.49 0.81,-2.01 0.51,-0.54 1.23,-0.87 2.01,-0.87 0.79,0 1.5,0.33 2.02,0.87 0.5,0.52 0.8,1.23 0.8,2.01 0,0.78 -0.31,1.5 -0.8,2.02zm-10.01 -25.75c-0.76,0.19 -1.53,-0.26 -1.73,-1.02 -0.19,-0.76 0.26,-1.54 1.02,-1.73 5.98,-1.57 6.89,1.66 8.12,6.39l19.11 0 0 0.01c0.77,0 1.41,0.62 1.42,1.39l0.11 6.01c0,0.1 0,0.2 -0.01,0.3 -0.21,1.76 -0.79,2.9 -1.78,3.71 -0.92,0.76 -2.08,1.13 -3.59,1.44 -4.23,0.87 -8.54,1.61 -12.79,2.41 -0.74,0.15 -1.47,-0.29 -1.67,-1.03l-3.25 -12.35c-0.02,-0.07 -0.04,-0.13 -0.05,-0.2l-0.21 -0.83c-0.83,-3.18 -1.4,-5.37 -4.7,-4.5l0 0zm8.16 6.49l2.47 9.39 11.46 -2.16c1.1,-0.23 1.9,-0.46 2.37,-0.85 0.39,-0.32 0.63,-0.86 0.75,-1.79l-0.08 -4.59 -16.97 0zm19.06 19.26c-0.51,0.53 -1.22,0.86 -2.01,0.86 -0.79,0 -1.5,-0.33 -2.01,-0.86 -0.5,-0.52 -0.81,-1.24 -0.81,-2.02 0,-0.78 0.31,-1.49 0.81,-2.01 0.51,-0.54 1.22,-0.87 2.01,-0.87 0.79,0 1.5,0.33 2.01,0.87 0.5,0.52 0.81,1.23 0.81,2.01 0,0.78 -0.31,1.5 -0.81,2.02z"/>
 </g>
</svg>
